<svg width="1534" height="1655" viewBox="0 0 1534 1655" fill="none" xmlns="http://www.w3.org/2000/svg">
<circle cx="760.513" cy="760.513" r="740.513" stroke="#E1D8C8" stroke-width="3"/>
<circle cx="760.513" cy="760.513" r="730.513" stroke="#E1D8C8" stroke-width="20"/>
<circle cx="760.513" cy="760.513" r="750.513" stroke="#E1D8C8" stroke-width="20"/>
<circle cx="760.513" cy="760.513" r="740.513" stroke="#215834" stroke-width="20"/>
<path d="M514.839 814.519C501.48 801.16 471.793 793.738 455.465 787.8C444.537 783.826 434.938 785.172 425.779 793.174C421.254 797.127 416.837 802.703 412.42 810.066C404.347 823.52 396.816 827.218 390.155 835.9C385.793 841.584 381.804 849.405 378.28 863.502C375.53 874.5 376.082 884.232 378.28 892.405C349.583 896.13 288.329 896.157 272.892 866.47C269.859 860.637 256.267 854.596 237.268 854.596C218.268 854.596 166.02 834.112 166.02 799.675C167.511 787.629 196.894 769.988 225.393 769.988C253.892 769.988 300.6 759.103 320.391 753.661C330.215 750.959 355.723 757.52 398.074 767.02C387.661 754.333 376.057 736.748 366.405 713.584C364.426 712.099 360.468 700.521 360.468 666.085C360.468 660.388 344.14 651.241 344.14 645.304V566.634C344.14 560.26 432.427 620.755 440.622 620.755L462.887 626.008C480.403 629.099 519.292 671.131 525.229 721.005C527.815 732.385 531.766 759.895 526.882 778.894C523.874 783.419 521.256 788.197 519.237 793.174C516.481 799.964 514.839 807.125 514.839 814.519Z" fill="#215834"/>
<path d="M1127.87 1187.09C1118.37 1165.71 1105.11 1141.57 1099.67 1132.17C1115.73 1122.99 1120.36 1100.01 1118.44 1077.25C1116.63 1055.85 1109.02 1034.65 1099.67 1025.29C1094.04 1019.67 1087.78 1014.42 1080.37 1009.8C1070.15 1003.43 1057.73 998.28 1041.78 995.018C1060.09 967.507 1105.9 912.485 1142.71 912.485C1179.53 912.485 1203.57 893.683 1210.99 884.282C1215.68 878.345 1241.27 873.595 1267.4 878.345C1275.15 879.755 1248.03 947.841 1227.32 968.89C1223 973.279 1221.09 977.921 1219.9 995.018C1218.42 1016.39 1178.34 1069.82 1153.1 1077.25C1225.84 1077.25 1257.01 1120.29 1262.95 1132.17C1267.7 1141.67 1279.77 1148 1285.21 1149.98C1312.92 1169.77 1363.29 1212.62 1343.1 1225.68C1322.91 1238.74 1269.38 1235.08 1245.13 1231.62C1235.52 1230.24 1240.68 1222.12 1210.99 1225.68C1173.89 1230.13 1138.26 1213.81 1133.1 1209.35C1132.93 1202.8 1131.5 1195.25 1127.87 1187.09Z" fill="#215834"/>
<path d="M1099.67 1132.17C1105.11 1141.57 1118.37 1165.71 1127.87 1187.09C1131.5 1195.25 1132.93 1202.8 1133.1 1209.35C1138.26 1213.81 1173.89 1230.13 1210.99 1225.68C1240.68 1222.12 1235.52 1230.24 1245.13 1231.62C1269.38 1235.08 1322.91 1238.74 1343.1 1225.68C1363.29 1212.62 1312.92 1169.77 1285.21 1149.98C1279.77 1148 1267.7 1141.67 1262.95 1132.17C1257.01 1120.29 1225.84 1077.25 1153.1 1077.25M1099.67 1132.17C1115.73 1122.99 1120.36 1100.01 1118.44 1077.25M1099.67 1132.17C1115.11 1147.6 1138.76 1172.24 1148.65 1182.63M1099.67 1132.17C1107.8 1133.75 1117.37 1136.19 1127.87 1139.24M1099.67 1025.29C1109.02 1034.65 1116.63 1055.85 1118.44 1077.25M1099.67 1025.29C1100.73 1023.03 1102.95 1020.01 1106.1 1016.39M1099.67 1025.29C1094.04 1019.67 1087.78 1014.42 1080.37 1009.8M1153.1 1077.25H1118.44M1153.1 1077.25C1178.34 1069.82 1218.42 1016.39 1219.9 995.018C1221.09 977.921 1223 973.279 1227.32 968.89C1248.03 947.841 1275.15 879.755 1267.4 878.345C1241.27 873.595 1215.68 878.345 1210.99 884.282C1203.57 893.683 1179.53 912.485 1142.71 912.485C1105.9 912.485 1060.09 967.507 1041.78 995.018C1057.73 998.28 1070.15 1003.43 1080.37 1009.8M425.779 793.174C421.254 797.127 416.837 802.703 412.42 810.066C404.347 823.52 396.816 827.218 390.155 835.9M425.779 793.174C434.938 785.172 444.537 783.826 455.465 787.8C471.793 793.738 501.48 801.159 514.839 814.519C514.839 807.125 516.481 799.964 519.237 793.174M425.779 793.174C423.256 791.812 411.682 783.599 398.074 767.02M398.074 767.02C387.661 754.333 376.057 736.748 366.405 713.584C364.426 712.099 360.468 700.521 360.468 666.085C360.468 660.388 344.14 651.241 344.14 645.304V566.634C344.14 560.26 432.427 620.755 440.622 620.755L462.887 626.008C480.403 629.099 519.292 671.131 525.229 721.005C527.815 732.385 531.766 759.895 526.882 778.894C523.874 783.419 521.256 788.197 519.237 793.174M398.074 767.02C355.723 757.52 330.215 750.959 320.391 753.661C300.6 759.103 253.892 769.988 225.393 769.988C196.894 769.988 167.511 787.629 166.02 799.675C166.02 834.112 218.268 854.596 237.268 854.596C256.267 854.596 269.859 860.637 272.892 866.47C288.329 896.157 349.583 896.13 378.28 892.405C376.082 884.231 375.53 874.5 378.28 863.502C381.804 849.405 385.793 841.584 390.155 835.9M390.155 835.9C386.289 835.351 380.566 834.593 373.827 833.778M219.456 810.066C244.793 810.066 279.183 817.03 304.063 823.272M258.049 787.8C265.965 796.605 286.251 816.025 304.063 823.272M304.063 823.272C312.998 825.514 320.706 827.662 326.328 829.362C329.203 829.513 332.188 829.705 335.234 829.927M338.203 793.174C346.119 803.682 364.327 826.515 373.827 833.778M373.827 833.778C362.504 832.41 348.312 830.883 335.234 829.927M286.251 848.658C297.136 844.633 322.172 835.252 335.234 829.927M378.28 612.649C388.478 629.134 406.185 655.851 427.87 685.381M519.237 793.174C513.1 787.245 506.944 780.969 500.814 774.441M440.622 651.241C440.401 663.116 441.806 692.209 449.196 713.584M449.196 713.584C456.153 722.508 463.354 731.476 470.714 740.301M449.196 713.584C441.772 704.059 434.628 694.584 427.87 685.381M486.637 703.193C488.172 720.51 493.157 759.004 500.814 774.441M500.814 774.441C490.64 763.607 480.536 752.081 470.714 740.301M418.357 721.005C427.038 724.963 449.663 734.364 470.714 740.301M378.28 657.179C389.075 658.952 414.107 667.074 427.87 685.381M1227.32 912.485C1210.26 925.66 1185.35 945.434 1162.01 965.017M1210.99 958.499C1202.09 957.402 1179.82 957.169 1162.01 965.017M1162.01 965.017C1151.32 973.987 1140.95 982.917 1131.82 991.155M1148.65 939.203C1147.5 948.109 1142.53 970.968 1131.82 991.155M1131.82 991.155C1121.03 1000.89 1111.95 1009.66 1106.1 1016.39M1153.1 1016.39C1144.53 1013.42 1123.11 1009.26 1106.1 1016.39M1095.22 977.796C1094.23 983.301 1089.87 997.41 1080.37 1009.8M1292.63 1200.45C1274.08 1192.53 1245.56 1180.85 1215.12 1169.28M1258.49 1163.34C1250.85 1164.82 1231.48 1168.09 1215.12 1169.28M1215.12 1169.28C1194.49 1161.43 1172.99 1153.64 1153.1 1147.09M1210.99 1200.45C1209.51 1197.48 1178.34 1150.14 1153.1 1147.09M1153.1 1147.09C1144.3 1144.19 1135.82 1141.54 1127.87 1139.24M1191.7 1128.65C1179.82 1134.53 1150.43 1144.89 1127.87 1139.24" stroke="#E1D8C8" stroke-width="5" stroke-linecap="round" stroke-linejoin="round"/>
<path d="M568.273 740.299C559.367 731.393 543.039 701.113 548.977 651.239C556.398 588.897 589.054 559.21 639.522 553.273C689.989 547.335 719.676 563.663 731.551 581.475C737.488 575.043 753.816 561.288 771.628 557.726C789.44 554.163 817.642 539.914 817.642 539.914C817.642 539.914 866.032 532.789 905.218 539.914C918.083 547.83 951.233 579.991 980.92 645.302C982.899 654.208 985.67 677.364 980.92 698.738C1029.61 702.3 1041.78 712.097 1041.78 716.55C1040.59 730.8 1041.58 738.689 1049.86 740.299C1103.3 750.689 1089.28 798.189 1080.37 818.969C1073.25 835.594 1074.43 858.552 1075.92 867.953C1079.37 889.842 1018.03 910.009 998.732 916.936C995.763 934.748 982.404 948.107 982.404 951.076C989.331 951.57 1001.93 960.766 998.732 991.153C1015.52 991.153 1029.67 992.539 1041.78 995.016C1057.73 998.278 1070.14 1003.43 1080.37 1009.8C1087.78 1014.41 1094.04 1019.66 1099.67 1025.29C1109.02 1034.64 1116.63 1055.85 1118.44 1077.24C1120.36 1100 1115.73 1122.98 1099.67 1132.16C1105.11 1141.57 1118.37 1165.71 1127.87 1187.09C1131.5 1195.24 1132.93 1202.8 1133.1 1209.35C1133.37 1219.96 1130.32 1227.94 1127.87 1231.62C1106.49 1232.8 1100.16 1241.02 1099.67 1244.97C1080.67 1269.91 1044.25 1266.25 1028.42 1261.3C1031.39 1280.6 1010.61 1295.44 988.341 1313.25C966.076 1331.07 918.577 1331.07 918.577 1305.83C918.577 1285.65 899.776 1278.62 890.375 1277.63C852.376 1277.63 840.897 1235.08 839.907 1213.8C805.471 1210.24 783.008 1186.59 776.081 1175.21C776.081 1095.33 764.2 1076.68 757.565 1077.1C757.293 1077.16 757.033 1077.21 756.785 1077.24C748.373 1086.15 731.551 1107.23 731.551 1120.29C731.551 1136.62 736.004 1135.13 736.004 1149.98C736.004 1164.82 706.317 1213.8 672.177 1213.8C638.038 1213.8 597.96 1207.87 597.96 1200.44C597.96 1198.72 597.88 1194.98 597.888 1190.05C575.55 1230.13 557.883 1246.46 535.618 1246.46C517.806 1246.46 507.416 1240.52 504.447 1237.55C487.822 1248.24 475.75 1247.94 471.792 1246.46C439.73 1239.33 429.735 1164.95 428.746 1128.64C412.435 1130.15 395.737 1127.92 387.184 1123.26C370.857 1114.35 341.17 1090.6 339.686 1056.46C338.201 1022.32 336.717 1001.54 344.139 988.184C351.56 974.825 342.654 965.919 394.606 918.42C389.441 914.47 381.776 905.408 378.278 892.403C376.08 884.229 375.529 874.498 378.278 863.5C381.802 849.403 385.791 841.582 390.153 835.898C396.814 827.216 404.345 823.518 412.418 810.063C416.835 802.701 421.253 797.124 425.777 793.172C434.936 785.17 444.535 783.824 455.464 787.798C471.792 793.736 501.478 801.157 514.837 814.516C514.837 807.123 516.48 799.962 519.235 793.172C521.255 788.195 523.872 783.417 526.88 778.892C538.881 760.84 557.089 746.824 568.273 740.299Z" fill="#D33939"/>
<path d="M568.273 740.299C559.367 731.393 543.039 701.113 548.977 651.239C556.398 588.897 589.054 559.21 639.522 553.273C689.989 547.335 719.676 563.663 731.551 581.475M568.273 740.299C668.02 837.672 699.425 850.21 706.317 848.656H731.551M568.273 740.299C557.089 746.824 538.881 760.84 526.88 778.892C523.872 783.417 521.255 788.195 519.235 793.172C516.48 799.962 514.837 807.123 514.837 814.516M731.551 581.475C743.426 599.287 743.426 661.63 737.488 676.473C731.551 691.316 724.129 728.424 724.129 740.299C724.129 752.174 721.16 799.673 731.551 821.938V848.656M731.551 581.475C737.488 575.043 753.816 561.288 771.628 557.726C789.44 554.163 817.642 539.914 817.642 539.914C817.642 539.914 866.032 532.789 905.218 539.914C918.083 547.83 951.233 579.991 980.92 645.302C982.899 654.208 985.67 677.364 980.92 698.738M731.551 848.656C736.449 853.554 742.67 856.167 749.363 857.24M980.92 698.738C974.982 725.456 948.264 771.471 882.953 793.736C830.705 811.548 809.726 823.917 805.768 827.875L793.893 848.656M980.92 698.738C1029.61 702.3 1041.78 712.097 1041.78 716.55C1040.59 730.8 1041.58 738.689 1049.86 740.299C1103.3 750.689 1089.28 798.189 1080.37 818.969C1073.25 835.594 1074.43 858.552 1075.92 867.953C1079.37 889.842 1018.03 910.009 998.732 916.936M793.893 848.656C797.356 851.625 812.893 857.562 847.329 857.562C890.375 857.562 961.623 847.172 988.341 878.343C992.3 881.806 999.919 894.374 998.732 916.936M793.893 848.656C784.121 853.542 765.388 859.807 749.363 857.24M998.732 916.936C995.763 934.748 982.404 948.107 982.404 951.076M514.837 814.516C514.837 857.562 522.259 896.155 611.319 955.529C614.783 957.013 626.163 959.982 643.975 959.982M514.837 814.516C501.478 801.157 471.792 793.736 455.464 787.798C444.535 783.824 434.936 785.17 425.777 793.172C421.253 797.124 416.835 802.701 412.418 810.063C404.345 823.518 396.814 827.216 390.153 835.898C385.791 841.582 381.802 849.403 378.278 863.5C375.529 874.498 376.08 884.229 378.278 892.403C381.776 905.408 389.441 914.47 394.606 918.42M643.975 959.982C666.24 959.982 698.895 965.919 709.286 974.825M643.975 959.982V991.153M709.286 974.825C707.801 972.351 712.551 959.685 743.426 928.81C747.402 923.219 741.051 885.481 749.363 857.24M709.286 974.825C713.471 982.637 721.62 994.853 731.551 1004.02M756.785 1016.39V1077.24M756.785 1016.39C768.196 1016.39 777.483 1014.26 786.017 1011.93M756.785 1016.39C747.98 1016.39 739.232 1011.12 731.551 1004.02M844.361 1029.75C841.392 1021.83 831.595 1006 816.158 1006C805.588 1006 796.354 1009.11 786.017 1011.93M844.361 1029.75C844.855 1032.22 853.86 1037.17 885.922 1037.17C925.999 1037.17 952.717 1020.84 960.139 988.184C967.561 955.529 970.529 951.076 982.404 951.076M844.361 1029.75C851.782 1071.31 854.751 1047.56 862.173 1105.45C868.11 1151.76 883.448 1161.36 890.375 1160.37M844.361 1029.75C805.174 1023.96 791.419 1029.32 789.44 1032.71M982.404 951.076C989.331 951.57 1001.93 960.766 998.732 991.153M998.732 991.153C997.742 1000.55 987.154 1027.96 952.717 1062.4C951.233 1063.89 939.358 1078.73 933.421 1093.57C928.671 1105.45 915.609 1118.31 909.671 1123.26C908.682 1126.72 906.703 1135.73 906.703 1144.04M998.732 991.153C1015.52 991.153 1029.67 992.539 1041.78 995.015C1057.73 998.278 1070.14 1003.43 1080.37 1009.8C1087.78 1014.41 1094.04 1019.66 1099.67 1025.29C1109.02 1034.64 1116.63 1055.85 1118.44 1077.24C1120.36 1100 1115.73 1122.98 1099.67 1132.16M906.703 1144.04C906.703 1152.35 895.818 1158.39 890.375 1160.37M906.703 1144.04C941.241 1144.04 943.811 1132.16 964.592 1128.64C979.01 1126.2 990.749 1134.83 996.516 1141.28M890.375 1160.37C904.944 1173.43 903.372 1180.65 900.765 1182.63M756.785 1077.24C763.712 1076.25 779.94 1065.96 789.44 1032.71M756.785 1077.24C748.373 1086.15 731.551 1107.23 731.551 1120.29C731.551 1136.62 736.004 1135.13 736.004 1149.98C736.004 1164.82 706.317 1213.8 672.177 1213.8C638.038 1213.8 597.96 1207.87 597.96 1200.44C597.96 1198.72 597.88 1194.98 597.888 1190.05M756.785 1077.24C763.217 1075.27 776.081 1092.09 776.081 1175.21C783.008 1186.59 805.471 1210.24 839.907 1213.8M789.44 1032.71C790.622 1029.25 791.591 1020.25 786.017 1011.93M611.319 1043.1C613.299 1067.35 615.179 1119.1 606.866 1132.16C598.895 1144.69 597.913 1173.82 597.888 1190.05M611.319 1043.1C601.424 1050.03 581.633 1059.73 581.633 1043.1M611.319 1043.1C618.741 1043.1 634.178 1040.43 636.553 1029.75C638.928 1019.06 647.438 1016.39 651.397 1016.39M581.633 1043.1C575.695 1050.53 556.696 1065.37 528.197 1065.37M581.633 1043.1C583.117 1039.92 585.195 1027.37 581.633 1002.7M528.197 1065.37C526.217 1058.44 523.447 1043.4 528.197 1038.65C534.134 1032.71 541.556 1022.32 569.758 1008.96C574.005 1006.95 577.968 1004.84 581.633 1002.7M528.197 1065.37C512.858 1075.76 478.917 1100.1 465.854 1114.35C458.079 1122.83 443.573 1127.28 428.746 1128.64M611.319 979.278C616.762 983.236 630.913 991.153 643.975 991.153M611.319 979.278C607.705 983.696 597.439 993.461 581.633 1002.7M611.319 979.278C611.319 969.778 598.455 966.414 592.023 965.919C584.601 968.888 562.93 971.856 535.618 959.982C508.306 948.107 490.593 943.159 485.151 942.17C444.777 942.17 407.965 926.337 394.606 918.42M643.975 991.153C645.459 996.1 649.022 1008.07 651.397 1016.39M651.397 1016.39C663.271 1019.36 691.474 1023.51 709.286 1016.39C727.098 1009.26 731.551 1005.18 731.551 1004.02M394.606 918.42C342.654 965.919 351.56 974.825 344.139 988.184C336.717 1001.54 338.201 1022.32 339.686 1056.46C341.17 1090.6 370.857 1114.35 387.184 1123.26C395.737 1127.92 412.435 1130.15 428.746 1128.64M428.746 1128.64C429.735 1164.95 439.73 1239.33 471.792 1246.46C475.75 1247.94 487.822 1248.24 504.447 1237.55C507.416 1240.52 517.806 1246.46 535.618 1246.46C557.883 1246.46 575.55 1230.13 597.888 1190.05M839.907 1213.8C844.361 1213.8 885.922 1221.23 900.765 1182.63M839.907 1213.8C840.897 1235.08 852.376 1277.63 890.375 1277.63C899.776 1278.62 918.577 1285.65 918.577 1305.83C918.577 1331.07 966.076 1331.07 988.341 1313.25C1010.61 1295.44 1031.39 1280.6 1028.42 1261.3M900.765 1182.63C920.952 1182.63 937.874 1182.63 943.811 1182.63M1028.42 1261.3C1014.56 1253.08 978.248 1225.82 943.811 1182.63M1028.42 1261.3C1044.25 1266.25 1080.67 1269.91 1099.67 1244.97C1100.16 1241.02 1106.49 1232.8 1127.87 1231.62C1130.32 1227.94 1133.37 1219.96 1133.1 1209.35C1132.93 1202.8 1131.5 1195.24 1127.87 1187.09C1118.37 1165.71 1105.11 1141.57 1099.67 1132.16M943.811 1182.63C944.801 1175.21 950.342 1160.37 964.592 1160.37C978.842 1160.37 993.289 1149.48 998.732 1144.04C998.141 1143.2 997.398 1142.27 996.516 1141.28M996.516 1141.28C998.732 1144.04 1068.5 1149.98 1099.67 1132.16" stroke="#E1D8C8" stroke-width="5"/>
<path d="M731.548 848.655V821.937C737.98 814.021 755.891 796.11 776.078 787.798C796.265 779.485 815.166 766.522 822.093 761.079C829.02 755.638 826.843 774.142 822.093 790.766C817.343 807.391 809.229 822.432 805.765 827.875L793.89 848.655C784.118 853.541 765.385 859.806 749.36 857.239C742.667 856.166 736.446 853.553 731.548 848.655Z" fill="#B5EA1D"/>
<path d="M890.372 1160.37C895.815 1158.39 906.7 1152.35 906.7 1144.04C941.239 1144.04 943.808 1132.16 964.589 1128.64C979.008 1126.2 990.746 1134.83 996.513 1141.28C997.396 1142.27 998.138 1143.2 998.729 1144.04C993.287 1149.48 978.839 1160.37 964.589 1160.37C950.339 1160.37 944.798 1175.21 943.808 1182.63H901.147C900.984 1183.35 900.763 1183.42 900.763 1182.63H901.147C901.693 1180.21 901.587 1170.42 890.372 1160.37Z" fill="#B5EA1D"/>
<path d="M611.317 1043.1C601.421 1050.03 581.63 1059.73 581.63 1043.1C575.693 1050.53 556.693 1065.37 528.194 1065.37C526.215 1058.44 523.444 1043.4 528.194 1038.65C534.131 1032.71 541.553 1022.32 569.755 1008.96C574.002 1006.95 577.965 1004.84 581.63 1002.7C597.436 993.461 607.702 983.695 611.317 979.277C616.759 983.235 630.91 991.152 643.972 991.152C645.457 996.1 649.019 1008.07 651.394 1016.39C647.436 1016.39 638.926 1019.06 636.551 1029.74C634.176 1040.43 618.739 1043.1 611.317 1043.1Z" fill="#B5EA1D"/>
<path d="M581.63 1043.1C581.63 1059.73 601.421 1050.03 611.317 1043.1C618.739 1043.1 634.176 1040.43 636.551 1029.74C638.926 1019.06 647.436 1016.39 651.394 1016.39C649.019 1008.07 645.457 996.1 643.972 991.152C630.91 991.152 616.759 983.235 611.317 979.277C607.702 983.695 597.436 993.461 581.63 1002.7M581.63 1043.1C575.693 1050.53 556.693 1065.37 528.194 1065.37C526.215 1058.44 523.444 1043.4 528.194 1038.65C534.131 1032.71 541.553 1022.32 569.755 1008.96C574.002 1006.95 577.965 1004.84 581.63 1002.7M581.63 1043.1C583.114 1039.92 585.193 1027.37 581.63 1002.7M731.548 821.937V848.655C736.446 853.553 742.667 856.166 749.36 857.239C765.385 859.806 784.118 853.541 793.89 848.655L805.765 827.875C809.229 822.432 817.343 807.391 822.093 790.766C826.843 774.142 829.02 755.638 822.093 761.079C815.166 766.522 796.265 779.485 776.078 787.798C755.891 796.11 737.98 814.021 731.548 821.937ZM906.7 1144.04C906.7 1152.35 895.815 1158.39 890.372 1160.37C904.941 1173.43 900.763 1186.05 900.763 1182.63C920.95 1182.63 937.871 1182.63 943.808 1182.63C944.798 1175.21 950.339 1160.37 964.589 1160.37C978.839 1160.37 993.287 1149.48 998.729 1144.04C998.138 1143.2 997.396 1142.27 996.513 1141.28C990.746 1134.83 979.007 1126.2 964.589 1128.64C943.808 1132.16 941.239 1144.04 906.7 1144.04Z" stroke="#E1D8C8" stroke-width="5"/>
<path d="M424.247 1338.2C417.293 1318.04 400.049 1283.13 386.699 1304.83C370.012 1331.94 401.301 1338.2 424.247 1338.2Z" fill="#215834"/>
<path d="M424.247 1225.56C444.273 1213.88 457.621 1270.76 461.792 1300.66C468.745 1274.23 485.572 1222.22 497.253 1225.56C511.855 1229.73 511.855 1269.37 461.792 1300.66C445.104 1286.05 399.214 1240.16 424.247 1225.56Z" fill="#215834"/>
<path d="M1102.18 1223.47C1098.84 1243.5 1090.1 1263.11 1079.23 1263.11C1049.2 1218.05 1066.72 1201.22 1079.23 1198.44C1088.27 1198.44 1105.52 1203.45 1102.18 1223.47Z" fill="#215834"/>
<path d="M1160.59 1092.06C1153.91 1112.08 1173.1 1126.82 1183.53 1131.69C1198.13 1130.3 1225.67 1122.1 1218.99 1100.4C1210.65 1073.28 1168.93 1067.03 1160.59 1092.06Z" fill="#215834"/>
<path d="M1287.83 1083.72C1257.79 1077.05 1260.45 1108.87 1263.23 1127.64C1296.23 1156.01 1312.7 1132.39 1319.12 1115.01C1321.2 1107.36 1317.87 1090.39 1287.83 1083.72Z" fill="#215834"/>
<path d="M461.792 1300.66C457.621 1270.76 444.273 1213.88 424.247 1225.56C399.214 1240.16 445.104 1286.05 461.792 1300.66ZM461.792 1300.66C468.745 1274.23 485.572 1222.22 497.253 1225.56C511.855 1229.73 511.855 1269.37 461.792 1300.66ZM424.247 1338.2C417.293 1318.04 400.049 1283.13 386.699 1304.83C370.012 1331.94 401.301 1338.2 424.247 1338.2ZM1079.23 1263.11C1090.1 1263.11 1098.84 1243.5 1102.18 1223.47C1105.52 1203.45 1088.27 1198.44 1079.23 1198.44C1066.72 1201.22 1049.2 1218.05 1079.23 1263.11ZM1183.53 1131.69C1173.1 1126.82 1153.91 1112.08 1160.59 1092.06C1168.93 1067.03 1210.65 1073.28 1218.99 1100.4C1225.67 1122.1 1198.13 1130.3 1183.53 1131.69ZM1263.23 1127.64C1260.45 1108.87 1257.79 1077.05 1287.83 1083.72C1317.87 1090.39 1321.2 1107.36 1319.12 1115.01C1312.7 1132.39 1296.23 1156.01 1263.23 1127.64Z" stroke="#215834" stroke-width="10" stroke-linecap="round"/>
<path d="M209.331 1252.68C203.257 1261.32 159.567 1247.93 135.195 1230.79C105.056 1210.97 100.862 1196.37 105.056 1179.68C117.548 1171.33 138.43 1181.76 153.035 1200.53C173.891 1223.48 215.404 1244.05 209.331 1252.68Z" fill="#215834"/>
<path d="M184.299 1208.88C178.226 1217.52 165.524 1204.71 144.666 1177.59C115.461 1140.04 115.438 1135.88 119.633 1119.19C132.125 1110.84 146.748 1133.79 161.353 1152.56C182.209 1175.51 190.373 1200.24 184.299 1208.88Z" fill="#215834"/>
<path d="M213.2 1095.41C225.716 1095.41 226.903 1105.85 228.103 1140.04C226.017 1181.76 226.018 1192.19 209.331 1202.62C203.547 1207.53 192.644 1194.28 192.642 1152.56C188.47 1104.58 200.684 1095.41 213.2 1095.41Z" fill="#215834"/>
<path d="M488.848 1321.52C499.278 1338.21 493.02 1369.5 505.536 1363.24C513.88 1346.55 522.224 1340.29 522.224 1321.52C522.224 1309 514.752 1304.83 505.536 1304.83C496.32 1304.83 488.848 1312.3 488.848 1321.52Z" fill="#215834"/>
<path d="M355.349 1213.05C361.605 1240.17 365.777 1261.03 355.349 1281.89C332.402 1271.46 344.921 1225.57 321.975 1208.88C305.288 1194.28 284.428 1152.56 303.201 1150.47C324.058 1148.15 347.004 1188.02 355.349 1213.05Z" fill="#215834"/>
<path d="M336.574 1258.94C341.328 1274.03 342.832 1279.8 330.316 1279.8C317.243 1273.51 320.755 1258.37 307.683 1248.31C284.424 1233.91 286.293 1214.37 296.988 1213.11C319.886 1210.42 331.82 1243.85 336.574 1258.94Z" fill="#215834"/>
<path d="M1160.52 1313.17C1137.16 1316.51 1135.49 1359.06 1137.58 1379.92C1152.6 1388.26 1163.31 1362.54 1166.78 1348.63C1175.13 1318.59 1166.09 1312.48 1160.52 1313.17Z" fill="#215834"/>
<path d="M1210.59 1384.1C1210.59 1375.75 1192.51 1372.27 1183.47 1371.58C1168.87 1374.68 1140.5 1382.77 1143.84 1390.35C1148.01 1399.83 1160.52 1400.78 1177.21 1402.87C1193.9 1404.95 1210.59 1394.52 1210.59 1384.1Z" fill="#215834"/>
<path d="M1214.76 1263.11C1195.99 1261.02 1195.99 1338.2 1195.99 1340.29C1205.72 1334.73 1225.61 1321.93 1227.28 1315.26C1229.36 1306.91 1233.53 1265.2 1214.76 1263.11Z" fill="#215834"/>
<path d="M1291.94 1354.89C1290.27 1336.53 1253.7 1333.34 1235.62 1334.03L1208.5 1354.89C1250.22 1375.75 1294.03 1377.84 1291.94 1354.89Z" fill="#215834"/>
<path d="M1258.57 1242.25C1235.62 1242.25 1235.62 1311.09 1235.62 1313.17L1268.99 1288.14C1273.17 1272.84 1276.92 1242.25 1258.57 1242.25Z" fill="#215834"/>
<path d="M1281.51 1294.4C1269.69 1304.83 1245.63 1326.1 1243.96 1327.77C1294.03 1329.86 1325.32 1323.6 1325.32 1309C1325.32 1297.32 1296.11 1294.4 1281.51 1294.4Z" fill="#215834"/>
<path d="M1529.74 1025.18C1506.38 1011.83 1461.6 1069.68 1442.13 1100.28L1448.39 1112.79L1492.19 1079.42C1537.25 1046.04 1536 1029.36 1529.74 1025.18Z" fill="#215834"/>
<path d="M1321.14 1185.93C1283.6 1200.53 1296.11 1256.85 1294.03 1258.94C1303.07 1262.41 1322.81 1260.61 1329.49 1225.56C1336.16 1190.52 1326.71 1184.54 1321.14 1185.93Z" fill="#215834"/>
<path d="M1379.55 1242.25C1374.54 1237.24 1345.48 1241.55 1331.57 1244.34L1296.11 1275.63C1296.81 1277.02 1305.71 1279.8 1335.75 1279.8C1373.29 1279.8 1385.81 1248.51 1379.55 1242.25Z" fill="#215834"/>
<path d="M1373.29 1119.18C1346.18 1125.44 1362.86 1185.93 1362.86 1190.1C1373.29 1185.93 1377.46 1183.84 1383.72 1150.47C1388.73 1123.77 1378.86 1118.48 1373.29 1119.18Z" fill="#215834"/>
<path d="M1444.21 1165.07C1435.87 1158.81 1404.58 1173.41 1398.32 1173.41L1373.29 1202.62C1415.01 1205.95 1437.96 1190.1 1444.21 1181.76C1447 1178.28 1450.89 1170.08 1444.21 1165.07Z" fill="#215834"/>
<path d="M1431.7 1075.37C1441.71 1075.37 1445.5 1090.78 1442.13 1096.23L1398.32 1154.64C1406.67 1106.33 1419.18 1075.37 1431.7 1075.37Z" fill="#215834"/>
<path d="M1494.28 1115.01C1502.62 1130.03 1439.35 1151.86 1406.67 1160.9C1417.1 1148.38 1438.79 1122.52 1442.13 1119.18C1446.3 1115.01 1483.85 1096.23 1494.28 1115.01Z" fill="#215834"/>
<path d="M1160.52 1313.17C1137.16 1316.51 1135.49 1359.06 1137.58 1379.92C1152.6 1388.26 1163.31 1362.54 1166.78 1348.63C1175.13 1318.59 1166.09 1312.48 1160.52 1313.17Z" stroke="#215834" stroke-linecap="round" stroke-linejoin="round"/>
<path d="M1210.59 1384.1C1210.59 1375.75 1192.51 1372.27 1183.47 1371.58C1168.87 1374.68 1140.5 1382.77 1143.84 1390.35C1148.01 1399.83 1160.52 1400.78 1177.21 1402.87C1193.9 1404.95 1210.59 1394.52 1210.59 1384.1Z" stroke="#215834" stroke-linecap="round" stroke-linejoin="round"/>
<path d="M1214.76 1263.11C1195.99 1261.02 1195.99 1338.2 1195.99 1340.29C1205.72 1334.73 1225.61 1321.93 1227.28 1315.26C1229.36 1306.91 1233.53 1265.2 1214.76 1263.11Z" stroke="#215834" stroke-linecap="round" stroke-linejoin="round"/>
<path d="M1291.94 1354.89C1290.27 1336.53 1253.7 1333.34 1235.62 1334.03L1208.5 1354.89C1250.22 1375.75 1294.03 1377.84 1291.94 1354.89Z" stroke="#215834" stroke-linecap="round" stroke-linejoin="round"/>
<path d="M1258.57 1242.25C1235.62 1242.25 1235.62 1311.09 1235.62 1313.17L1268.99 1288.14C1273.17 1272.84 1276.92 1242.25 1258.57 1242.25Z" stroke="#215834" stroke-linecap="round" stroke-linejoin="round"/>
<path d="M1281.51 1294.4C1269.69 1304.83 1245.63 1326.1 1243.96 1327.77C1294.03 1329.86 1325.32 1323.6 1325.32 1309C1325.32 1297.32 1296.11 1294.4 1281.51 1294.4Z" stroke="#215834" stroke-linecap="round" stroke-linejoin="round"/>
<path d="M1529.74 1025.18C1506.38 1011.83 1461.6 1069.68 1442.13 1100.28L1448.39 1112.79L1492.19 1079.42C1537.25 1046.04 1536 1029.36 1529.74 1025.18Z" stroke="#215834" stroke-linecap="round" stroke-linejoin="round"/>
<path d="M1321.14 1185.93C1283.6 1200.53 1296.11 1256.85 1294.03 1258.94C1303.07 1262.41 1322.81 1260.61 1329.49 1225.56C1336.16 1190.52 1326.71 1184.54 1321.14 1185.93Z" stroke="#215834" stroke-linecap="round" stroke-linejoin="round"/>
<path d="M1379.55 1242.25C1374.54 1237.24 1345.48 1241.55 1331.57 1244.34L1296.11 1275.63C1296.81 1277.02 1305.71 1279.8 1335.75 1279.8C1373.29 1279.8 1385.81 1248.51 1379.55 1242.25Z" stroke="#215834" stroke-linecap="round" stroke-linejoin="round"/>
<path d="M1373.29 1119.18C1346.18 1125.44 1362.86 1185.93 1362.86 1190.1C1373.29 1185.93 1377.46 1183.84 1383.72 1150.47C1388.73 1123.77 1378.86 1118.48 1373.29 1119.18Z" stroke="#215834" stroke-linecap="round" stroke-linejoin="round"/>
<path d="M1444.21 1165.07C1435.87 1158.81 1404.58 1173.41 1398.32 1173.41L1373.29 1202.62C1415.01 1205.95 1437.96 1190.1 1444.21 1181.76C1447 1178.28 1450.89 1170.08 1444.21 1165.07Z" stroke="#215834" stroke-linecap="round" stroke-linejoin="round"/>
<path d="M1431.7 1075.37C1441.71 1075.37 1445.5 1090.78 1442.13 1096.23L1398.32 1154.64C1406.67 1106.33 1419.18 1075.37 1431.7 1075.37Z" stroke="#215834" stroke-linecap="round" stroke-linejoin="round"/>
<path d="M1494.28 1115.01C1502.62 1130.03 1439.35 1151.86 1406.67 1160.9C1417.1 1148.38 1438.79 1122.52 1442.13 1119.18C1446.3 1115.01 1483.85 1096.23 1494.28 1115.01Z" stroke="#215834" stroke-linecap="round" stroke-linejoin="round"/>
<path d="M213.557 1244.34C247.875 1284.29 292.272 1326.19 344.972 1364.53M213.557 1244.34C191.307 1217.91 143.469 1158.39 130.119 1131.69M213.557 1244.34C203.545 1180.92 209.385 1126.13 213.557 1106.66M213.557 1244.34C158.488 1244.34 123.861 1206.79 113.432 1188.01M1446.35 1104.58C1228.38 1380.03 1010.38 1488.74 816.397 1505.38M344.972 1364.53C345.194 1354.2 344.555 1339.7 342.395 1323.6M344.972 1364.53C392.809 1399.32 447.487 1431.17 507.677 1455.95M301.167 1223.48C326.188 1247.36 337.773 1289.15 342.395 1323.6M342.395 1323.6C352.989 1288.84 361.243 1208.87 309.511 1167.16M426.324 1340.29C431.192 1365.95 454.276 1425 507.677 1455.95M507.677 1455.95C517.948 1460.18 528.38 1464.21 538.966 1468M459.7 1300.66C459.185 1322.5 467.201 1369.15 497.785 1417.47M538.966 1468C522.05 1451.62 508.526 1434.44 497.785 1417.47M538.966 1468C563.216 1476.7 588.274 1484.21 614.06 1490.28M553.567 1286.05C545.919 1304.83 526.867 1346.13 511.848 1361.15C496.83 1376.17 496.215 1404.95 497.785 1417.47M1260.71 1131.69C1246.92 1152.16 1229.37 1176.43 1208.89 1202.62M816.397 1505.38C833.529 1503.2 850.965 1498.8 868.546 1492.53M816.397 1505.38C801.653 1506.65 787.048 1507.38 772.592 1507.62M1118.86 1165.07C1132.8 1188.01 1153.58 1247.26 1125.17 1300.66M1125.17 1300.66C1135.93 1289.13 1146.36 1277.56 1156.41 1266.07M1125.17 1300.66C1104.66 1322.63 1082.95 1344.44 1060.45 1365.18M1281.56 1181.76C1273.44 1190.1 1247.53 1205.95 1208.89 1202.62M1208.89 1202.62C1193.03 1222.9 1175.4 1244.34 1156.41 1266.07M1181.44 1137.95C1173.79 1173.99 1158.08 1250.08 1156.41 1266.07M1077.58 1263.23C1071.32 1272.72 1060.45 1308.68 1060.45 1365.18M1060.45 1365.18C999.694 1421.2 933.133 1469.48 868.546 1492.53M687.068 1468C680.115 1476.76 655.779 1493.46 614.06 1490.28M614.06 1490.28C664.333 1502.12 717.373 1508.51 772.592 1507.62M878.976 1455.95C872.023 1461.18 860.202 1475.81 868.546 1492.53M849.773 1536.37C834.476 1537.36 797.624 1533.01 772.592 1507.62" stroke="#215834" stroke-width="15" stroke-linecap="round"/>
<path d="M155.156 1315.26C185.75 1319.43 254.03 1326.52 282.399 1321.52C303.26 1317.35 294.913 1369.49 236.506 1377.84C189.781 1384.51 189.225 1360.06 194.787 1346.99C168.601 1336.07 144.086 1313.88 155.156 1315.26Z" fill="#215834"/>
<path d="M290.741 1436.24C328.288 1429.99 408.389 1417.89 428.414 1419.56C430.566 1419.74 432.364 1420.12 433.817 1420.67C453.105 1426.23 451.032 1445.41 447.188 1455.02C409.64 1546.8 292.827 1494.65 330.374 1492.56C360.412 1490.9 373.484 1471.01 376.265 1461.28C332.877 1469.62 276.14 1438.68 290.741 1436.24Z" fill="#215834"/>
<path d="M465.961 1498.82C457.617 1505.08 498.502 1507.17 553.571 1473.79C534.798 1461.28 492.661 1472.12 465.961 1498.82Z" fill="#215834"/>
<path d="M860.206 1346.55C831.003 1334.73 755.491 1342.38 687.072 1467.53C726.01 1482.13 815.149 1478.38 860.206 1346.55Z" fill="#215834"/>
<path d="M897.753 1373.67C966.595 1296.49 1001.36 1309.7 1025 1319.43C961.583 1414.55 901.23 1452.24 878.98 1459.19C853.948 1415.8 880.936 1392.52 897.753 1373.67Z" fill="#215834"/>
<path d="M845.604 1536.37C847.69 1536.37 941.558 1525.94 981.191 1548.89C1020.82 1571.83 1033.34 1611.46 1070.89 1630.24C1108.43 1649.01 972.847 1667.78 922.785 1630.24C872.722 1592.69 845.604 1569.74 845.604 1536.37Z" fill="#215834"/>
<path d="M1006.22 1502.99C981.191 1504.66 951.293 1488.39 939.472 1480.05C956.16 1440.42 1008.31 1415.38 1054.2 1407.04C1090.91 1400.37 1140.42 1429.29 1160.58 1444.59C1133.47 1465.45 1037.51 1500.91 1006.22 1502.99Z" fill="#215834"/>
<path d="M282.399 1321.52C254.03 1326.52 185.75 1319.43 155.156 1315.26C144.086 1313.88 168.601 1336.07 194.787 1346.99M282.399 1321.52C291.438 1327.08 291.994 1341.12 221.906 1352.81C213.68 1353.35 204.127 1350.89 194.787 1346.99M282.399 1321.52C303.26 1317.35 294.913 1369.49 236.506 1377.84C189.781 1384.51 189.225 1360.06 194.787 1346.99M428.414 1419.56C408.389 1417.89 328.288 1429.99 290.741 1436.24C276.14 1438.68 332.877 1469.62 376.265 1461.28M428.414 1419.56C453.445 1421.64 430.5 1450.85 376.265 1461.28M428.414 1419.56C453.445 1422.89 451.359 1444.59 447.188 1455.02C409.64 1546.8 292.827 1494.65 330.374 1492.56C360.412 1490.9 373.484 1471.01 376.265 1461.28M860.206 1346.55C831.003 1334.73 755.491 1342.38 687.072 1467.53M860.206 1346.55C815.149 1478.38 726.01 1482.13 687.072 1467.53M860.206 1346.55C836.565 1357.67 783.86 1387.43 762.166 1417.47C735.049 1455.02 701.674 1450.85 687.072 1467.53M1025 1319.43C1001.36 1309.7 966.595 1296.49 897.753 1373.67C880.936 1392.52 853.948 1415.8 878.98 1459.19M1025 1319.43C961.583 1414.55 901.23 1452.24 878.98 1459.19M1025 1319.43C946.564 1347.8 894.972 1424.42 878.98 1459.19M845.604 1536.37C847.69 1536.37 941.558 1525.94 981.191 1548.89C1020.82 1571.83 1033.34 1611.46 1070.89 1630.24M845.604 1536.37C845.604 1569.74 872.722 1592.69 922.785 1630.24C972.847 1667.78 1108.43 1649.01 1070.89 1630.24M845.604 1536.37C865.769 1545.41 916.527 1571 958.246 1601.03C1010.39 1638.58 1043.77 1634.41 1070.89 1630.24M939.472 1480.05C951.293 1488.39 981.191 1504.66 1006.22 1502.99C1037.51 1500.91 1133.47 1465.45 1160.58 1444.59M939.472 1480.05C956.16 1440.42 1008.31 1415.38 1054.2 1407.04C1090.91 1400.37 1140.42 1429.29 1160.58 1444.59M939.472 1480.05C1037.93 1433.32 1127.9 1436.94 1160.58 1444.59M465.961 1498.82C457.617 1505.08 498.502 1507.17 553.571 1473.79C534.798 1461.28 492.661 1472.12 465.961 1498.82Z" stroke="#E1D8C8" stroke-width="5" stroke-linecap="round"/>
</svg>
